<?xml version="1.0" encoding="UTF-8"?>
<svg width="512" height="512" viewBox="0 0 512 512" xmlns="http://www.w3.org/2000/svg">
  <style>
    .owl {
      fill: #805AD5;
      transform-origin: center;
      animation: float 3s ease-in-out infinite;
    }
    @keyframes float {
      0%, 100% { transform: translateY(0) rotate(0deg); }
      50% { transform: translateY(-20px) rotate(10deg); }
    }
  </style>
  <path class="owl" d="M256 32c-88.004 0-160 71.996-160 160 0 40.375 15.375 77.125 40.5 105.375L96 352h64l29.625-29.625C207.875 334.125 231 341.375 256 341.375s48.125-7.25 66.375-18.875L352 352h64l-40.5-54.625C400.625 269.125 416 232.375 416 192c0-88.004-71.996-160-160-160zm-80 160c-17.645 0-32-14.355-32-32s14.355-32 32-32 32 14.355 32 32-14.355 32-32 32zm160 0c-17.645 0-32-14.355-32-32s14.355-32 32-32 32 14.355 32 32-14.355 32-32 32z"/>
</svg> 